<?xml version="1.0" encoding="utf-8"?>
<!-- Generator: Adobe Illustrator 24.1.3, SVG Export Plug-In . SVG Version: 6.00 Build 0)  -->
<svg version="1.1" id="Layer_1" xmlns="http://www.w3.org/2000/svg" xmlns:xlink="http://www.w3.org/1999/xlink" x="0px" y="0px"
	 width="160.3px" height="51.8px" viewBox="0 0 160.3 51.8" style="enable-background:new 0 0 160.3 51.8;" xml:space="preserve">
<style type="text/css">
	.st0{fill:#1D1D1B;}
	.st1{fill:#C71618;}
</style>
<g>
	<rect x="118.7" y="1.5" class="st0" width="1.6" height="33.6"/>
	<path class="st0" d="M43.4,45.9c-0.1,2.2-0.8,3.1-2.3,3.1h-1L40,47.7c1.5-0.1,2.1-0.9,2.1-2.6l0.1-1.9H41l-0.1,1.9
		c0,1.2-0.3,1.5-1,1.6l-0.2-3.4l0,0h-1.2l0.5,6.9h2.1c2.3,0,3.4-1.4,3.6-4.4l0.1-2.5h-1.3L43.4,45.9z"/>
	<polygon class="st0" points="56,44.4 56.8,44.4 56.8,50.2 58.1,50.2 58.1,43.3 56,43.3 	"/>
	<path class="st0" d="M52.4,43.3H49v1.1H50v3.8c0,0.8-0.2,0.9-0.7,0.9c-0.1,0-0.2,0-0.3,0l-0.1,0v1.1l0,0c0.2,0,0.4,0,0.6,0
		c1.3,0,1.8-0.6,1.8-2.1v-3.7h1c0.7,0,1,0.3,1,1.4v4.4h1.3v-4.4C54.5,44,53.9,43.3,52.4,43.3"/>
	<polygon class="st0" points="59.5,44.4 60.4,44.4 60.4,47.5 61.7,47.5 61.7,43.3 59.5,43.3 	"/>
	<path class="st0" d="M66.7,43.3h-3.4v1.1h0.9v3.8c0,0.8-0.2,0.9-0.7,0.9c-0.1,0-0.2,0-0.3,0l-0.1,0v1.1l0,0c0.2,0,0.4,0,0.6,0
		c1.3,0,1.8-0.6,1.8-2.1v-3.7h1c0.7,0,1,0.3,1,1.4v4.4h1.3v-4.4C68.8,44,68.2,43.3,66.7,43.3"/>
	<path class="st0" d="M75.4,45.9c-0.1,2.2-0.8,3.1-2.3,3.1h-1L72,47.7c1.5-0.1,2.1-0.9,2.1-2.6l0.1-1.9H73L73,45.2
		c0,1.2-0.3,1.5-1,1.6l-0.2-3.4l0,0h-1.2l0.5,6.9h2.1c2.3,0,3.4-1.4,3.6-4.4l0.1-2.5h-1.3L75.4,45.9z"/>
	<path class="st0" d="M3.7,43.3h-1v-1.7H1.4v2.8h2c0.7,0,0.9,0.2,0.9,0.7v0.2c0,1.1-0.8,2.6-1.7,4.4l-0.2,0.4l0,0.1h1.4l0,0
		c0.9-1.7,1.8-3.5,1.8-4.9v-0.2C5.6,43.8,5,43.3,3.7,43.3"/>
	<path class="st0" d="M11.7,45.4l0.2-2.1h-1.3l-0.1,2c0,0.6-0.2,1-0.4,1.3l-1.8-3.3l0,0H6.9l0,0.1l1.2,2.1c-0.5,0.5-0.8,1.2-0.8,2.3
		L7,50.2h1.3l0.2-2.4c0-0.6,0.1-1.1,0.3-1.4l2.1,3.8l0,0h1.3l0-0.1l-1.5-2.7C11.3,47,11.7,46.3,11.7,45.4"/>
	<rect x="85.7" y="46" class="st0" width="1.3" height="4.2"/>
	<path class="st0" d="M15,43.3h-1.9v1.1h1.7c0.8,0,1,0.3,1,1.4v4.4h1.3v-4.5C17.2,44,16.6,43.3,15,43.3"/>
	<path class="st0" d="M23.8,45.9c-0.1,2.2-0.8,3.1-2.3,3.1h-1l-0.1-1.3c1.5-0.1,2.1-0.9,2.1-2.6l0.1-1.9h-1.2l-0.1,1.9
		c0,1.2-0.3,1.5-1,1.6l-0.2-3.4l0,0h-1.2l0.5,6.9h2.1c2.3,0,3.4-1.4,3.6-4.4l0.1-2.5h-1.3L23.8,45.9z"/>
	<polygon class="st0" points="26.6,44.4 27.5,44.4 27.5,47.5 28.8,47.5 28.8,43.3 26.6,43.3 	"/>
	<path class="st0" d="M35.2,43.3h-1v-1.7h-1.3v2.8h2c0.7,0,0.9,0.2,0.9,0.7v0.2c0,1.1-0.8,2.6-1.7,4.4l-0.2,0.4l0,0.1h1.4l0,0
		c0.9-1.7,1.8-3.5,1.8-4.9v-0.2C37.1,43.8,36.6,43.3,35.2,43.3"/>
	<path class="st0" d="M81.8,43.3h-3.4v1.1h0.9v3.8c0,0.8-0.2,0.9-0.7,0.9c-0.1,0-0.2,0-0.3,0l-0.1,0v1.1l0,0c0.2,0,0.4,0,0.6,0
		c1.3,0,1.8-0.6,1.8-2.1v-3.7h1c0.7,0,1,0.3,1,1.4v4.4h1.3v-4.4C83.9,44,83.3,43.3,81.8,43.3"/>
	<path class="st0" d="M88.3,43.3h-2.6v1.1h2.4c0.8,0,1,0.3,1,1.4v4.4h1.3v-4.4C90.4,44,89.8,43.3,88.3,43.3"/>
	<path class="st0" d="M134.9,43.3h-3.4v1.1h0.9v3.8c0,0.8-0.2,0.9-0.7,0.9c-0.1,0-0.2,0-0.3,0l-0.1,0v1.1l0,0c0.2,0,0.4,0,0.6,0
		c1.3,0,1.8-0.6,1.8-2.1v-3.7h1c0.7,0,1,0.3,1,1.4v4.4h1.3v-4.4C137.1,44,136.4,43.3,134.9,43.3"/>
	<rect x="122.5" y="46" class="st0" width="1.3" height="4.2"/>
	<path class="st0" d="M120.2,45.8c0-1.7-0.6-2.5-2.1-2.5h-1.8v1.1h1.7c0.8,0,1,0.3,1,1.4V49h-2.7v1.1h4.8v-1.1h-0.8V45.8z"/>
	<path class="st0" d="M152.9,43.3h-3.4v1.1h0.8v5.8h1.3v-5.8h1.2c0.8,0,1,0.3,1,1.4v4.4h1.3v-4.5C155.2,44,154.5,43.3,152.9,43.3"/>
	<path class="st0" d="M140.3,43.3h-1.9v1.1h1.7c0.8,0,1,0.3,1,1.4v4.4h1.3v-4.5C142.4,44,141.8,43.3,140.3,43.3"/>
	<path class="st0" d="M147.9,45.8c0-1.7-0.6-2.5-2.1-2.5h-1.8v1.1h1.7c0.8,0,1,0.3,1,1.4V49h-2.7v1.1h4.8v-1.1h-0.8V45.8z"/>
	<path class="st0" d="M125,43.3h-2.6v1.1h2.4c0.8,0,1,0.3,1,1.4v4.4h1.3v-4.4C127.2,44,126.6,43.3,125,43.3"/>
	<rect x="98.8" y="46" class="st0" width="1.3" height="4.2"/>
	<polygon class="st0" points="91.9,44.4 92.7,44.4 92.7,50.2 94,50.2 94,43.3 91.9,43.3 	"/>
	<path class="st0" d="M101.3,43.3h-2.6v1.1h2.4c0.8,0,1,0.3,1,1.4v4.4h1.3v-4.4C103.5,44,102.9,43.3,101.3,43.3"/>
	<polygon class="st0" points="112.2,44.4 113.3,44.4 113.3,49 112,49 112,50.2 114.6,50.2 114.6,43.3 112.2,43.3 	"/>
	<polygon class="st0" points="104.7,44.4 105.5,44.4 105.5,47.5 106.9,47.5 106.9,43.3 104.7,43.3 	"/>
	<polygon class="st0" points="108.4,44.4 109.2,44.4 109.2,47.5 110.5,47.5 110.5,43.3 108.4,43.3 	"/>
	<path class="st0" d="M30.3,35.1V1.5H1.4v9.1h18.8v24.4H30.3z M11.5,35.1V16.6H5.4c-2.4,0-4,1.8-4,4.4v14.2H11.5z M50.6,23.8V8.5
		c0-4.2-2.8-7-7.1-7h-8.1v9.1h5.1v13.1H50.6z M57.6,1.5v9.1h6.7v11.4c0,2.4-1.5,3.9-3.7,3.9h-5.1v9.1h5.6c8,0,13.3-5.8,13.3-13.3
		V1.5H57.6z M103.9,35.1V14.2c0-2.1,1.3-3.5,3.3-3.5h3.4V1.5H80.4v9.1h13.4v24.4H103.9z"/>
	<path class="st1" d="M129.5,10.9c2,9.9,6,10.9,6,10.9V1.5h-6.8C128.7,1.5,128.9,8.1,129.5,10.9"/>
	<path class="st1" d="M147.8,1.5h-6.7c0,0-0.5,11.8,4.2,18c3.3,4.4,3,15.5,3,15.5h6.9c0,0,0.3-11.9-5.2-19.8
		C147.8,12.2,147.8,1.5,147.8,1.5"/>
	<path class="st1" d="M153.5,1.5v20.3c0,0,4-1,6-10.9c0.5-2.8,0.8-9.3,0.8-9.3H153.5z"/>
	<path class="st1" d="M136.7,25.8c-0.5,2.8-0.8,9.3-0.8,9.3h6.8V14.9C142.7,14.9,138.7,15.9,136.7,25.8"/>
</g>
</svg>
